<svg width="50" height="50" viewBox="0 0 50 50" fill="none" xmlns="http://www.w3.org/2000/svg">
<rect width="50" height="50" rx="10" fill="url(#paint0_radial_3_33)"/>
<mask id="mask0_3_33" style="mask-type:alpha" maskUnits="userSpaceOnUse" x="0" y="0" width="50" height="50">
<path d="M0 10C0 4.47715 4.47715 0 10 0H40C45.5228 0 50 4.47715 50 10V40C50 45.5228 45.5228 50 40 50H10C4.47715 50 0 45.5228 0 40V10Z" fill="url(#paint1_radial_3_33)"/>
</mask>
<g mask="url(#mask0_3_33)">
<g opacity="0.2">
<path d="M5.5 -1.5V51.5" stroke="#494949" stroke-width="0.5"/>
<path d="M15.5 -1.5V51.5" stroke="#494949" stroke-width="0.5"/>
<path d="M25.5 -1.5V51.5" stroke="#494949" stroke-width="0.5"/>
<path d="M35.5 -1.5V51.5" stroke="#494949" stroke-width="0.5"/>
<path d="M45.5 -1.5V51.5" stroke="#494949" stroke-width="0.5"/>
<path d="M51.5 5.5H-1.5" stroke="#494949" stroke-width="0.5"/>
<path d="M51.5 15.5H-1.5" stroke="#494949" stroke-width="0.5"/>
<path d="M51.5 25.5H-1.5" stroke="#494949" stroke-width="0.5"/>
<path d="M51.5 35.5H-1.5" stroke="#494949" stroke-width="0.5"/>
<path d="M51.5 45.5H-1.5" stroke="#494949" stroke-width="0.5"/>
</g>
<g filter="url(#filter0_f_3_33)">
<path d="M-3 26.2154H5.17232L13.0486 36.1176V13.3434L37.3508 37V13.3434" stroke="white" stroke-width="4"/>
<circle cx="37.4395" cy="10.5605" r="3.56049" fill="white"/>
</g>
<g filter="url(#filter1_d_3_33)">
<path d="M-8.5 26.2154H5.5L13.0486 36.1176V13.3434L37.3508 37V13.3434" stroke="white" stroke-width="4"/>
<circle cx="37.4395" cy="10.5605" r="3.56049" fill="white"/>
</g>
</g>
<defs>
<filter id="filter0_f_3_33" x="-5" y="5" width="48" height="38.8449" filterUnits="userSpaceOnUse" color-interpolation-filters="sRGB">
<feFlood flood-opacity="0" result="BackgroundImageFix"/>
<feBlend mode="normal" in="SourceGraphic" in2="BackgroundImageFix" result="shape"/>
<feGaussianBlur stdDeviation="1" result="effect1_foregroundBlur_3_33"/>
</filter>
<filter id="filter1_d_3_33" x="-12.5" y="7" width="57.5" height="43.0402" filterUnits="userSpaceOnUse" color-interpolation-filters="sRGB">
<feFlood flood-opacity="0" result="BackgroundImageFix"/>
<feColorMatrix in="SourceAlpha" type="matrix" values="0 0 0 0 0 0 0 0 0 0 0 0 0 0 0 0 0 0 127 0" result="hardAlpha"/>
<feOffset dy="4"/>
<feGaussianBlur stdDeviation="2"/>
<feComposite in2="hardAlpha" operator="out"/>
<feColorMatrix type="matrix" values="0 0 0 0 0 0 0 0 0 0 0 0 0 0 0 0 0 0 0.25 0"/>
<feBlend mode="normal" in2="BackgroundImageFix" result="effect1_dropShadow_3_33"/>
<feBlend mode="normal" in="SourceGraphic" in2="effect1_dropShadow_3_33" result="shape"/>
</filter>
<radialGradient id="paint0_radial_3_33" cx="0" cy="0" r="1" gradientUnits="userSpaceOnUse" gradientTransform="translate(15.5 13.5) rotate(50.371) scale(41.5482 55.6147)">
<stop stop-color="#1E9A5C"/>
<stop offset="1" stop-color="#244B38"/>
</radialGradient>
<radialGradient id="paint1_radial_3_33" cx="0" cy="0" r="1" gradientUnits="userSpaceOnUse" gradientTransform="translate(15.5 13.5) rotate(50.371) scale(41.5482 55.6147)">
<stop stop-color="#BBEDD4"/>
<stop offset="1" stop-color="#1E9A5C"/>
</radialGradient>
</defs>
</svg>
